<?xml version="1.0" standalone="no"?>
<!DOCTYPE svg PUBLIC "-//W3C//DTD SVG 20010904//EN"
 "http://www.w3.org/TR/2001/REC-SVG-20010904/DTD/svg10.dtd">
<svg version="1.0" xmlns="http://www.w3.org/2000/svg"
 width="260.000000pt" height="260.000000pt" viewBox="0 0 260.000000 260.000000"
 preserveAspectRatio="xMidYMid meet">
<metadata>
Created by potrace 1.14, written by Peter Selinger 2001-2017
</metadata>
<g transform="translate(0.000000,260.000000) scale(0.100000,-0.100000)"
fill="#000000" stroke="none">
<path d="M1118 2508 l-3 -93 -375 3 c-206 1 -457 -1 -557 -4 l-183 -6 0 -1204
0 -1204 90 0 90 0 -1 931 c0 724 2 934 12 939 17 11 167 11 174 0 3 -5 7 -383
8 -839 l2 -830 530 -5 c292 -3 583 -5 648 -5 l117 -1 0 -95 0 -95 90 0 90 0 0
93 0 94 143 6 c78 4 202 7 274 7 l133 0 2 183 3 182 98 3 97 3 0 79 0 80 -85
0 c-47 0 -88 0 -91 -1 -4 0 -11 5 -15 13 -9 13 -11 540 -3 562 3 7 37 10 99 8
l95 -3 0 85 0 86 -94 0 -94 0 -6 198 c-3 108 -5 317 -3 465 l2 267 -185 3
c-102 1 -266 0 -365 -1 -99 -2 -267 -1 -372 3 l-193 7 0 89 0 89 -85 0 -84 0
-3 -92z m-330 -275 l142 -6 0 -87 0 -88 -192 -6 c-106 -3 -274 -7 -373 -9
l-180 -2 -6 95 c-3 52 -4 98 -2 103 5 9 416 9 611 0z m1438 -918 c0 -506 -1
-925 -3 -931 -3 -7 -116 -11 -373 -11 l-370 1 -1 50 c-1 28 -3 69 -5 92 l-3
41 276 6 c152 4 277 8 279 9 6 7 9 391 7 911 l-3 557 -454 0 c-250 0 -461 3
-470 6 -9 3 -16 12 -16 20 0 8 -6 14 -12 14 -10 0 -10 2 0 9 9 5 12 28 11 70
-2 45 2 65 12 72 8 5 252 8 569 6 l555 -2 1 -920z m-380 542 c3 -2 6 -254 7
-558 l2 -554 -94 -3 c-52 -1 -98 1 -102 5 -4 4 -4 213 1 463 5 250 7 456 5
458 -6 6 -906 2 -916 -4 -5 -3 -9 -129 -9 -280 l0 -274 -95 0 -95 0 2 288 3
287 45 1 c25 1 64 2 88 3 l43 1 -3 85 c-2 50 1 87 7 90 13 6 1105 -2 1111 -8z
m-548 -454 l3 -92 92 -3 92 -3 0 -95 0 -95 -92 -3 -93 -3 0 -84 0 -85 88 0
c48 0 92 -4 97 -8 6 -4 10 -47 10 -95 0 -80 -2 -88 -20 -93 -11 -2 -99 -3
-195 -2 l-175 3 -2 90 c-1 50 -2 132 -2 183 l-1 92 -90 0 -90 0 0 100 0 100
90 0 90 0 0 88 c0 49 3 92 7 96 4 4 48 5 98 4 l90 -3 3 -92z m-556 -723 c4
-146 5 -275 3 -287 -5 -22 -10 -23 -100 -23 l-95 0 0 283 c0 156 3 287 7 291
4 4 46 5 93 4 l85 -3 7 -265z m563 -210 l0 -95 -195 0 -195 0 -3 84 c-1 47 0
91 2 98 4 11 46 13 198 11 l193 -3 0 -95z"/>
</g>
</svg>
